<svg aria-hidden="true" style="position: absolute; width: 0; height: 0; overflow: hidden;" version="1.1" xmlns="http://www.w3.org/2000/svg" xmlns:xlink="http://www.w3.org/1999/xlink">
<defs>
<symbol id="icon-chevron-circle-up" viewBox="0 0 24 28">
<path d="M18.203 17.797l1.594-1.594c0.391-0.391 0.391-1.016 0-1.406l-7.094-7.094c-0.391-0.391-1.016-0.391-1.406 0l-7.094 7.094c-0.391 0.391-0.391 1.016 0 1.406l1.594 1.594c0.391 0.391 1.016 0.391 1.406 0l4.797-4.797 4.797 4.797c0.391 0.391 1.016 0.391 1.406 0zM24 14c0 6.625-5.375 12-12 12s-12-5.375-12-12 5.375-12 12-12 12 5.375 12 12z"></path>
</symbol>
<symbol id="icon-chevron-circle-down" viewBox="0 0 24 28">
<path d="M12.703 20.297l7.094-7.094c0.391-0.391 0.391-1.016 0-1.406l-1.594-1.594c-0.391-0.391-1.016-0.391-1.406 0l-4.797 4.797-4.797-4.797c-0.391-0.391-1.016-0.391-1.406 0l-1.594 1.594c-0.391 0.391-0.391 1.016 0 1.406l7.094 7.094c0.391 0.391 1.016 0.391 1.406 0zM24 14c0 6.625-5.375 12-12 12s-12-5.375-12-12 5.375-12 12-12 12 5.375 12 12z"></path>
</symbol>
<symbol id="icon-long-arrow-left" viewBox="0 0 29 28">
<path d="M28 12.5v3c0 0.281-0.219 0.5-0.5 0.5h-19.5v3.5c0 0.203-0.109 0.375-0.297 0.453s-0.391 0.047-0.547-0.078l-6-5.469c-0.094-0.094-0.156-0.219-0.156-0.359v0c0-0.141 0.063-0.281 0.156-0.375l6-5.531c0.156-0.141 0.359-0.172 0.547-0.094 0.172 0.078 0.297 0.25 0.297 0.453v3.5h19.5c0.281 0 0.5 0.219 0.5 0.5z"></path>
</symbol>
</defs>
</svg>
